<svg width="36" height="24" viewBox="0 0 36 24" fill="none" xmlns="http://www.w3.org/2000/svg">
<path d="M35.9999 3.75379C35.9999 1.68394 34.181 0 31.9452 0H4.05465C1.8189 0.000112218 0 1.68394 0 3.75379V19.8707C0 21.9406 1.8189 23.6245 4.05465 23.6245H31.9453C34.1811 23.6245 36 21.9406 36 19.8707V3.75379H35.9999ZM4.05465 2.2751H31.9453C32.8261 2.2751 33.5425 2.93853 33.5425 3.75379V5.82264H2.45732V3.75379C2.45732 2.93842 3.17393 2.2751 4.05465 2.2751ZM33.5425 11.6452H2.45732V8.09763H33.5425V11.6452ZM31.9452 21.3494H4.05465C3.17393 21.3494 2.45745 20.686 2.45745 19.8707V13.9202H33.5427V19.8707C33.5426 20.6861 32.826 21.3494 31.9452 21.3494Z" fill="#F6A700"/>
<path d="M13.8072 17.4678H5.42148C4.74293 17.4678 4.19275 17.9771 4.19275 18.6053C4.19275 19.2335 4.74293 19.7429 5.42148 19.7429H13.8072C14.4857 19.7429 15.0359 19.2335 15.0359 18.6053C15.0359 17.9771 14.4857 17.4678 13.8072 17.4678Z" fill="#F6A700"/>
<path d="M20.0963 17.4678H18C17.3214 17.4678 16.7712 17.9771 16.7712 18.6053C16.7712 19.2335 17.3214 19.7429 18 19.7429H20.0963C20.7749 19.7429 21.3251 19.2335 21.3251 18.6053C21.3251 17.9771 20.7749 17.4678 20.0963 17.4678Z" fill="#F6A700"/>
</svg>
