<svg width="36" height="36" viewBox="0 0 36 36" fill="none" xmlns="http://www.w3.org/2000/svg">
<path d="M33.65 1.15161H10.9614C9.66353 1.15161 8.61145 2.2037 8.61145 3.50159V9.84598H10.9614V3.50159H33.65V17.8672H29.8512V20.2172H33.65C34.9478 20.2172 36 19.1651 36 17.8672V3.50159C36 2.20377 34.9479 1.15161 33.65 1.15161Z" fill="#F6A700"/>
<path d="M25.0385 12.196H2.34998C1.0524 12.196 0 13.2478 0 14.546V28.9117C0 30.2096 1.05208 31.2616 2.34998 31.2616H9.58266L11.8959 34.0119C12.8351 35.1285 14.5549 35.1269 15.4927 34.0119L17.8059 31.2616H25.0386C25.7687 31.2616 26.4209 30.9287 26.8519 30.4065C26.8759 30.3775 26.8992 30.3479 26.9217 30.3177C27.2149 29.9257 27.3886 29.4389 27.3886 28.9117V14.546C27.3885 13.2483 26.3365 12.196 25.0385 12.196ZM25.0385 28.9117H16.7118L13.6943 32.4992L10.6767 28.9117H2.34998V14.546H25.0385V28.9117Z" fill="#F6A700"/>
<path d="M6.26752 20.1937H21.121C21.7699 20.1937 22.296 19.6676 22.296 19.0187C22.296 18.3698 21.7699 17.8438 21.121 17.8438H6.26752C5.61861 17.8438 5.09253 18.3698 5.09253 19.0187C5.09253 19.6676 5.61861 20.1937 6.26752 20.1937Z" fill="#F6A700"/>
<path d="M6.26752 25.5031H12.3478C12.9967 25.5031 13.5228 24.977 13.5228 24.3281C13.5228 23.6792 12.9967 23.1531 12.3478 23.1531H6.26752C5.61861 23.1531 5.09253 23.6792 5.09253 24.3281C5.09253 24.977 5.61861 25.5031 6.26752 25.5031Z" fill="#F6A700"/>
</svg>
