<svg width="36" height="36" viewBox="0 0 36 36" fill="none" xmlns="http://www.w3.org/2000/svg">
<g clip-path="url(#clip0_24_477)">
<path d="M36 9.29564C36 7.05988 34.1811 5.24097 31.9454 5.24097H4.05467C1.81891 5.24109 0 7.05988 0 9.29564V26.7044C0 28.9401 1.81891 30.759 4.05467 30.759H31.9455C34.1812 30.759 36.0001 28.9401 36.0001 26.7044V9.29564H36ZM4.05467 7.69842H31.9455C32.8262 7.69842 33.5427 8.41503 33.5427 9.29564V11.5303H2.45733V9.29564C2.45733 8.41491 3.17394 7.69842 4.05467 7.69842ZM33.5427 17.8195H2.45733V13.9876H33.5427V17.8195ZM31.9454 28.3016H4.05467C3.17394 28.3016 2.45746 27.585 2.45746 26.7044V20.2769H33.5428V26.7044C33.5427 27.5851 32.8261 28.3016 31.9454 28.3016Z" fill="#F6A700"/>
<path d="M13.8071 24.1089H5.42135C4.74281 24.1089 4.19263 24.6591 4.19263 25.3376C4.19263 26.0162 4.74281 26.5663 5.42135 26.5663H13.8071C14.4856 26.5663 15.0358 26.0162 15.0358 25.3376C15.0358 24.6591 14.4856 24.1089 13.8071 24.1089Z" fill="#F6A700"/>
<path d="M20.0963 24.1089H18C17.3214 24.1089 16.7712 24.6591 16.7712 25.3376C16.7712 26.0162 17.3214 26.5663 18 26.5663H20.0963C20.7749 26.5663 21.3251 26.0162 21.3251 25.3376C21.3251 24.6591 20.7749 24.1089 20.0963 24.1089Z" fill="#F6A700"/>
</g>
<defs>
<clipPath id="clip0_24_477">
<rect width="36" height="36" fill="white"/>
</clipPath>
</defs>
</svg>
