<svg width="72" height="30" viewBox="0 0 72 30" fill="none" xmlns="http://www.w3.org/2000/svg">
<path d="M25.6616 4.39163C25.3006 4.03386 24.93 3.7051 24.5495 3.39568C23.018 2.15798 21.2915 1.26839 19.4771 0.736567C18.1212 0.349788 16.7166 0.146729 15.3119 0.146729C11.5661 0.146729 7.82028 1.55847 4.96217 4.39163C-0.754073 10.058 -0.754073 19.244 4.96217 24.9006C10.6784 30.5573 19.9453 30.5669 25.6518 24.9006C31.3583 19.2343 31.3681 10.058 25.6616 4.39163ZM15.3119 21.9031L7.99589 14.6509L15.3119 7.39883L22.6279 14.6509L15.3119 21.9031Z" fill="#E60050"/>
<path d="M42.0302 7.56421C41.2986 7.56421 40.6841 7.32246 40.1963 6.82932C39.7085 6.33617 39.4646 5.73666 39.4646 5.01145C39.4646 4.28624 39.6988 3.68673 40.1963 3.20326C40.6938 2.71978 41.2986 2.46837 42.0302 2.46837C42.5083 2.46837 42.9375 2.58441 43.3277 2.8068C43.718 3.02921 44.0106 3.33863 44.2155 3.71574L43.1326 4.34425C43.0351 4.1412 42.8887 3.98648 42.6839 3.87045C42.4888 3.75442 42.2644 3.6964 42.0205 3.6964C41.6401 3.6964 41.3279 3.8221 41.0841 4.07351C40.8402 4.32492 40.7133 4.63434 40.7133 5.02112C40.7133 5.39823 40.8402 5.71733 41.0841 5.95906C41.3279 6.21047 41.6401 6.3265 42.0205 6.3265C42.2741 6.3265 42.4985 6.26849 42.7034 6.16212C42.8985 6.04608 43.0448 5.89138 43.1521 5.69798L44.2448 6.31683C44.0301 6.69394 43.7277 7.00337 43.3375 7.23543C42.9375 7.45785 42.5083 7.56421 42.0302 7.56421Z" fill="#4B4BC8"/>
<path d="M46.2922 3.43414C46.4093 3.12472 46.6043 2.89265 46.8677 2.73794C47.1408 2.58323 47.4335 2.50587 47.775 2.50587V3.89828C47.3945 3.84993 47.0433 3.92728 46.7409 4.13034C46.4385 4.3334 46.2922 4.66217 46.2922 5.1263V7.43733H45.0337V2.60256H46.2922V3.43414Z" fill="#4B4BC8"/>
<path d="M49.4826 5.52277C49.6485 6.13195 50.107 6.43171 50.8581 6.43171C51.3361 6.43171 51.7068 6.26732 51.9507 5.94823L52.9652 6.5284C52.4872 7.21493 51.7751 7.56304 50.8386 7.56304C50.0289 7.56304 49.3851 7.32129 48.8973 6.83782C48.4095 6.35435 48.1656 5.74517 48.1656 5.01029C48.1656 4.28508 48.4095 3.6759 48.8875 3.19243C49.3655 2.70896 49.9899 2.45755 50.741 2.45755C51.4531 2.45755 52.0482 2.69929 52.5165 3.19243C52.9848 3.68558 53.2091 4.28508 53.2091 5.01029C53.2091 5.17467 53.1896 5.33905 53.1604 5.52277H49.4826ZM49.4631 4.55583H51.9507C51.8824 4.22706 51.736 3.98533 51.5019 3.82095C51.2775 3.65656 51.0239 3.57921 50.7313 3.57921C50.3899 3.57921 50.1167 3.66623 49.8923 3.84028C49.6777 4.01433 49.5314 4.25607 49.4631 4.55583Z" fill="#4B4BC8"/>
<path d="M57.8422 0.668382H59.1007V7.43703H57.8422V6.86651C57.4715 7.34032 56.9447 7.57239 56.2619 7.57239C55.6083 7.57239 55.0425 7.33065 54.584 6.83751C54.1254 6.34436 53.8913 5.74486 53.8913 5.01964C53.8913 4.29444 54.1254 3.69493 54.584 3.20179C55.0425 2.70864 55.6083 2.45724 56.2619 2.45724C56.9447 2.45724 57.4715 2.6893 57.8422 3.16311V0.668382ZM55.5303 5.99626C55.7839 6.24767 56.1058 6.38304 56.5057 6.38304C56.9057 6.38304 57.2179 6.25734 57.4715 5.99626C57.7252 5.74486 57.852 5.4161 57.852 5.01964C57.852 4.6232 57.7252 4.29443 57.4715 4.03336C57.2179 3.78195 56.8959 3.64658 56.5057 3.64658C56.1155 3.64658 55.7936 3.77228 55.5303 4.03336C55.2766 4.28476 55.1498 4.61353 55.1498 5.01964C55.14 5.4161 55.2668 5.74486 55.5303 5.99626Z" fill="#4B4BC8"/>
<path d="M60.9725 2.02258C60.7676 2.02258 60.5822 1.94522 60.4262 1.80018C60.2701 1.64546 60.2018 1.47141 60.2018 1.25868C60.2018 1.04596 60.2798 0.87191 60.4262 0.717195C60.5822 0.562483 60.7578 0.485127 60.9725 0.485127C61.1871 0.485127 61.3724 0.562483 61.5188 0.717195C61.6748 0.87191 61.7529 1.05562 61.7529 1.25868C61.7529 1.46175 61.6748 1.64546 61.5188 1.80018C61.3627 1.95489 61.1871 2.02258 60.9725 2.02258ZM60.3481 7.43747V2.60275H61.6065V7.43747H60.3481Z" fill="#4B4BC8"/>
<path d="M65.6452 3.80085H64.5429V5.8121C64.5429 5.97649 64.5819 6.10219 64.6697 6.17955C64.7575 6.25691 64.8746 6.29558 65.0404 6.30525C65.2063 6.31492 65.4014 6.31492 65.6452 6.30525V7.4366C64.7771 7.53325 64.1722 7.45589 63.8113 7.19485C63.4503 6.93377 63.2844 6.4793 63.2844 5.8121V3.80085H62.4357V2.60183H63.2844V1.62522L64.5429 1.2481V2.60183H65.6452V3.80085Z" fill="#4B4BC8"/>
<path d="M40.7716 15.1916C40.9375 15.8009 41.3959 16.1006 42.1471 16.1006C42.6251 16.1006 42.9958 15.9362 43.2397 15.6171L44.2543 16.1973C43.7762 16.8839 43.0641 17.2319 42.1276 17.2319C41.3179 17.2319 40.6741 16.9902 40.1863 16.5067C39.6985 16.0232 39.4546 15.4141 39.4546 14.6792C39.4546 13.954 39.6985 13.3448 40.1765 12.8613C40.6546 12.3778 41.2789 12.1264 42.03 12.1264C42.7422 12.1264 43.3372 12.3682 43.8055 12.8613C44.2738 13.3545 44.4981 13.954 44.4981 14.6792C44.4981 14.8436 44.4786 15.0079 44.4494 15.1916H40.7716ZM40.7521 14.2247H43.2397C43.1714 13.896 43.0251 13.6542 42.7909 13.4898C42.5666 13.3255 42.3129 13.2481 42.0202 13.2481C41.6788 13.2481 41.4057 13.3351 41.1813 13.5092C40.9667 13.6832 40.8204 13.925 40.7521 14.2247Z" fill="#4B4BC8"/>
<path d="M49.9507 12.2722V17.1069H48.6923V16.5654C48.3899 17.0199 47.9021 17.2423 47.2387 17.2423C46.7022 17.2423 46.2632 17.0683 45.912 16.7105C45.5609 16.3527 45.3853 15.8692 45.3853 15.2407V12.2722H46.6436V15.086C46.6436 15.4051 46.7314 15.6565 46.907 15.8209C47.0826 15.9949 47.3168 16.0723 47.6094 16.0723C47.9314 16.0723 48.1948 15.9756 48.3899 15.7726C48.585 15.5695 48.6826 15.2697 48.6826 14.8733V12.2722H49.9507Z" fill="#4B4BC8"/>
<path d="M52.4577 13.0939C52.5747 12.7844 52.7698 12.5523 53.0332 12.3976C53.3064 12.2429 53.5991 12.1656 53.9405 12.1656V13.558C53.5601 13.5096 53.2089 13.587 52.9064 13.7901C52.604 13.9931 52.4577 14.3219 52.4577 14.786V17.097H51.1992V12.2623H52.4577V13.0939Z" fill="#4B4BC8"/>
<path d="M58.7389 16.4971C58.2413 16.9902 57.6267 17.2319 56.9049 17.2319C56.183 17.2319 55.5782 16.9902 55.0709 16.4971C54.5733 16.0039 54.3294 15.4044 54.3294 14.6889C54.3294 13.9733 54.5733 13.3641 55.0709 12.871C55.5684 12.3778 56.183 12.1264 56.9049 12.1264C57.6267 12.1264 58.2413 12.3778 58.7389 12.871C59.2364 13.3641 59.49 13.9636 59.49 14.6889C59.49 15.4141 59.2364 16.0039 58.7389 16.4971ZM55.9586 15.6461C56.2123 15.8976 56.5244 16.0232 56.8951 16.0232C57.2658 16.0232 57.5877 15.8976 57.8413 15.6461C58.095 15.3947 58.2218 15.0756 58.2218 14.6889C58.2218 14.3021 58.095 13.983 57.8413 13.7316C57.5877 13.4802 57.2755 13.3545 56.8951 13.3545C56.5147 13.3545 56.2025 13.4802 55.9586 13.7316C55.7147 13.983 55.5879 14.3021 55.5879 14.6889C55.5879 15.066 55.7147 15.3851 55.9586 15.6461Z" fill="#4B4BC8"/>
<path d="M63.3154 12.1264C63.969 12.1264 64.5348 12.3778 64.9933 12.871C65.4518 13.3641 65.6957 13.9636 65.6957 14.6889C65.6957 15.4141 65.4616 16.0136 64.9933 16.5067C64.5251 16.9999 63.969 17.2416 63.3154 17.2416C62.6326 17.2416 62.1058 17.0095 61.7351 16.5357V19.0402H60.4766V12.2715H61.7351V12.842C62.1058 12.3682 62.6326 12.1264 63.3154 12.1264ZM62.1155 15.6655C62.3692 15.9169 62.6911 16.0523 63.0813 16.0523C63.4715 16.0523 63.7934 15.9266 64.0568 15.6655C64.3104 15.4141 64.447 15.0853 64.447 14.6889C64.447 14.2924 64.3202 13.9636 64.0568 13.7026C63.8032 13.4511 63.4813 13.3255 63.0813 13.3255C62.6911 13.3255 62.3692 13.4511 62.1155 13.7026C61.8619 13.954 61.7351 14.2827 61.7351 14.6889C61.7351 15.095 61.8619 15.4141 62.1155 15.6655Z" fill="#4B4BC8"/>
<path d="M67.7425 15.1916C67.9084 15.8009 68.3669 16.1006 69.1181 16.1006C69.596 16.1006 69.9667 15.9362 70.2106 15.6171L71.2252 16.1973C70.7471 16.8839 70.035 17.2319 69.0985 17.2319C68.2888 17.2319 67.645 16.9902 67.1572 16.5067C66.6694 16.0232 66.4256 15.4141 66.4256 14.6792C66.4256 13.954 66.6694 13.3448 67.1474 12.8613C67.6255 12.3778 68.2498 12.1264 69.001 12.1264C69.7131 12.1264 70.3081 12.3682 70.7764 12.8613C71.2447 13.3545 71.469 13.954 71.469 14.6792C71.469 14.8436 71.4495 15.0079 71.4203 15.1916H67.7425ZM67.723 14.2247H70.2106C70.1423 13.896 69.996 13.6542 69.7619 13.4898C69.5375 13.3255 69.2839 13.2481 68.9912 13.2481C68.6498 13.2481 68.3766 13.3351 68.1523 13.5092C67.9376 13.6832 67.7913 13.925 67.723 14.2247Z" fill="#4B4BC8"/>
<path d="M42.5483 21.8063C43.2019 21.8063 43.7677 22.0481 44.2262 22.5413C44.6847 23.0344 44.9286 23.6339 44.9286 24.3591C44.9286 25.0843 44.6945 25.6838 44.2262 26.177C43.758 26.6701 43.2019 26.9118 42.5483 26.9118C41.8655 26.9118 41.3387 26.6798 40.968 26.206V26.7765H39.7095V20.0078H40.968V22.5123C41.3387 22.0384 41.8655 21.8063 42.5483 21.8063ZM41.3484 25.3357C41.6021 25.5871 41.924 25.7225 42.3142 25.7225C42.7044 25.7225 43.0263 25.5968 43.2897 25.3357C43.5433 25.0843 43.6799 24.7555 43.6799 24.3591C43.6799 23.9626 43.5531 23.6339 43.2897 23.3825C43.036 23.131 42.7141 22.9957 42.3142 22.9957C41.924 22.9957 41.6021 23.1214 41.3484 23.3825C41.0948 23.6339 40.968 23.9626 40.968 24.3591C40.968 24.7555 41.0948 25.0843 41.3484 25.3357Z" fill="#4B4BC8"/>
<path d="M49.6193 21.9423H50.8778V26.7771H49.6193V26.2066C49.2388 26.6804 48.7121 26.9125 48.0292 26.9125C47.3756 26.9125 46.8196 26.6707 46.361 26.1776C45.9025 25.6845 45.6684 25.0849 45.6684 24.3598C45.6684 23.6346 45.9025 23.035 46.361 22.5419C46.8196 22.0488 47.3854 21.807 48.0292 21.807C48.7121 21.807 49.2388 22.039 49.6193 22.5128V21.9423ZM47.2976 25.3363C47.5512 25.5878 47.8732 25.7231 48.2634 25.7231C48.6536 25.7231 48.9755 25.5974 49.2388 25.3363C49.4925 25.0849 49.6193 24.7562 49.6193 24.3598C49.6193 23.9633 49.4925 23.6346 49.2388 23.3831C48.9852 23.1317 48.6633 22.9963 48.2634 22.9963C47.8634 22.9963 47.5512 23.1221 47.2976 23.3831C47.0439 23.6346 46.9171 23.9633 46.9171 24.3598C46.9171 24.7562 47.0439 25.0849 47.2976 25.3363Z" fill="#4B4BC8"/>
<path d="M54.8291 21.807C55.3657 21.807 55.8047 21.981 56.1461 22.3388C56.4973 22.6965 56.6729 23.1801 56.6729 23.8086V26.7771H55.4145V23.9633C55.4145 23.6442 55.3267 23.3928 55.1511 23.2284C54.9755 23.0543 54.7413 22.9673 54.4486 22.9673C54.1267 22.9673 53.8633 23.0641 53.6682 23.2671C53.4731 23.4701 53.3756 23.7699 53.3756 24.1663V26.7771H52.1172V21.9423H53.3756V22.4838C53.678 22.0294 54.1657 21.807 54.8291 21.807Z" fill="#4B4BC8"/>
<path d="M62.34 26.7765H60.8768L59.1012 24.5815V26.7765H57.8429V20.0078H59.1012V24.0787L60.7792 21.9418H62.2815L60.3207 24.3204L62.34 26.7765Z" fill="#4B4BC8"/>
</svg>
