<svg width="140" height="24" viewBox="0 0 140 24" fill="none" xmlns="http://www.w3.org/2000/svg">
<path fill-rule="evenodd" clip-rule="evenodd" d="M0 14.0675C0 18.5825 2.52921 23.1352 8.19284 23.1352C13.8513 23.1352 16.3854 18.5825 16.3854 14.0675C16.3854 10.9838 15.3461 7.43284 13.6116 4.56398C11.9247 1.79419 9.89776 0.146729 8.19284 0.146729C6.48271 0.146729 4.45524 1.79419 2.78297 4.56398C1.03989 7.43284 0 10.9838 0 14.0675ZM58.1687 6.92022H52.4337V1.3783H70.0479V6.92022H64.3132L64.313 21.9037H58.1684L58.1687 6.92022ZM83.1536 6.9203H92.1663V1.3784H83.1545C74.8738 1.3784 70.4529 5.50398 70.4529 11.6411C70.4529 17.7782 74.8738 21.9039 83.1545 21.9039H92.1663V16.3619H83.1536C79.3221 16.3619 76.8021 14.9893 76.8021 11.6411C76.8021 8.2929 79.3221 6.9203 83.1536 6.9203ZM36.6591 13.6297L39.9348 1.3784H50.7928V21.9039H44.6485V5.19813L40.1817 21.9039H33.1366L28.6726 5.20856V21.9039H22.528V1.3784H33.3833L36.6591 13.6297ZM103.373 7.32786H101.207V9.33561H103.373C103.922 9.33561 104.249 9.05322 104.249 8.53245V8.16056C104.249 7.62502 103.967 7.32786 103.373 7.32786ZM103.922 11.6411H98.3121V1.37812H106.564V3.83251H101.207V5.17092H103.922C106.193 5.17092 107.292 6.30137 107.292 8.29437C107.292 10.3916 106.193 11.6411 103.922 11.6411ZM113.968 7.44658H111.683L112.825 3.65407L113.968 7.44658ZM118.361 11.6411L115.2 1.3784H110.896L107.735 11.6411H110.436L111.015 9.67766H114.636L115.23 11.6411H118.361ZM125.677 11.6411V7.66989H122.368V11.6411H119.399V1.3784H122.368V5.14136H125.677V1.3784H128.646V11.6411H125.677ZM133.915 5.14127H133.395V1.3783H130.426V11.641H133.395V7.66981H133.825L136.571 11.641H140L136.29 6.27173L139.703 1.3783H136.571L133.915 5.14127Z" fill="#E30611"/>
</svg>
