<svg width="36" height="36" viewBox="0 0 36 36" fill="none" xmlns="http://www.w3.org/2000/svg">
<path d="M35.5735 6.03651C35.2315 5.63271 34.7293 5.3999 34.2001 5.3999H0.900002C0.40261 5.3999 0 5.80251 0 6.2999C0 6.79729 0.40261 7.19991 0.900002 7.19991H10.7754L10.4754 8.99991H6.30001C5.80262 8.99991 5.40001 9.40252 5.40001 9.89991C5.40001 10.3973 5.80262 10.7999 6.30001 10.7999H10.1754L9.87541 12.5999H2.70001C2.20261 12.5999 1.8 13.0025 1.8 13.4999C1.8 13.9973 2.20261 14.3999 2.70001 14.3999H9.57539L9.27536 16.1999H8.10002C7.60262 16.1999 7.20001 16.6025 7.20001 17.0999C7.20001 17.5973 7.60262 17.9999 8.10002 17.9999H8.97541L8.67538 19.7999H4.50001C4.00262 19.7999 3.60001 20.2025 3.60001 20.6999C3.60001 21.1973 4.00262 21.5999 4.50001 21.5999H8.37543L7.22462 28.5041C7.13765 29.0261 7.2846 29.5595 7.6266 29.9633C7.9686 30.3671 8.47077 30.5999 9.00002 30.5999H30.6001C31.4797 30.5999 32.2309 29.964 32.3755 29.0957L35.9755 7.49571C36.0625 6.97371 35.9155 6.44032 35.5735 6.03651ZM21.6 7.19991H25.2L24.3 12.5999H20.7L21.6 7.19991ZM21.6 28.7999H18L18.9 23.3999H22.5L21.6 28.7999ZM30.6001 28.7999H23.4247L24.2754 23.6957C24.3624 23.1737 24.2155 22.6403 23.8735 22.2365C23.5315 21.8327 23.0293 21.5999 22.5 21.5999H18.9C18.0204 21.5999 17.2692 22.2359 17.1246 23.1041L16.2 28.7999H9.00002L10.2 21.5999H15.3C15.7974 21.5999 16.2 21.1973 16.2 20.6999C16.2 20.2025 15.7974 19.7999 15.3 19.7999H10.5L10.8 17.9999H13.5C13.9974 17.9999 14.4 17.5973 14.4 17.0999C14.4 16.6025 13.9974 16.1999 13.5 16.1999H11.1L11.4001 14.3999H15.3C15.7974 14.3999 16.2 13.9973 16.2 13.4999C16.2 13.0025 15.7974 12.5999 15.3 12.5999H11.7L12 10.7999H17.1C17.5974 10.7999 18 10.3973 18 9.89991C18 9.40252 17.5974 8.99991 17.1 8.99991H12.3L12.6 7.19991H19.7754L18.9246 12.3041C18.8377 12.8261 18.9846 13.3595 19.3266 13.7633C19.6686 14.1671 20.1708 14.3999 20.7 14.3999H24.3C25.1797 14.3999 25.9309 13.7639 26.0754 12.8957L27.0001 7.19991H34.2001L30.6001 28.7999Z" fill="#F6A700"/>
</svg>
