<svg width="42" height="43" viewBox="0 0 42 43" fill="none" xmlns="http://www.w3.org/2000/svg">
<g clip-path="url(#clip0_24_763)">
<path d="M21 42.9626C32.598 42.9626 42 33.5606 42 21.9626C42 10.3647 32.598 0.962646 21 0.962646C9.40202 0.962646 0 10.3647 0 21.9626C0 33.5606 9.40202 42.9626 21 42.9626Z" fill="#696969"/>
<path d="M41.8907 24.1175L32.3197 14.5464L20.8822 20.2891L9.79987 29.5261L23.1295 42.8557C33.0185 41.8598 40.8831 34.0031 41.8907 24.1175Z" fill="#2F2F2F" fill-opacity="0.45"/>
<path d="M30.8518 30.1293H11.1481C10.1458 30.1293 9.33334 29.3167 9.33334 28.3145V15.6107C9.33334 14.6083 10.1459 13.7959 11.1481 13.7959H30.8519C31.8543 13.7959 32.6667 14.6085 32.6667 15.6107V28.3144C32.6666 29.3167 31.8541 30.1293 30.8518 30.1293Z" fill="#FFD15D"/>
<path d="M30.8519 13.7959H21.0236V30.1292H30.8519C31.8542 30.1292 32.6666 29.3166 32.6666 28.3144V15.6107C32.6666 14.6085 31.8541 13.7959 30.8519 13.7959Z" fill="#F9B54C"/>
<path d="M21 23.1292L32.6666 16.1293V15.6107C32.6666 14.6083 31.854 13.7959 30.8518 13.7959H11.1481C10.1459 13.7959 9.33334 14.6085 9.33334 15.6107V16.1293L21 23.1292Z" fill="#FC6F58"/>
<path d="M32.6666 15.6107C32.6666 14.6085 31.854 13.7959 30.8519 13.7959H21.0236V23.1151L32.6666 16.1293V15.6107Z" fill="#F1543F"/>
</g>
<defs>
<clipPath id="clip0_24_763">
<rect width="42" height="42" fill="white" transform="translate(0 0.962646)"/>
</clipPath>
</defs>
</svg>
