<svg width="16" height="21" viewBox="0 0 16 21" fill="none" xmlns="http://www.w3.org/2000/svg">
<path d="M0 21C0 18.8783 0.842855 16.8434 2.34315 15.3431C3.84344 13.8429 5.87827 13 8 13C10.1217 13 12.1566 13.8429 13.6569 15.3431C15.1571 16.8434 16 18.8783 16 21H14C14 20.2121 13.8448 19.4319 13.5433 18.7039C13.2417 17.9759 12.7998 17.3145 12.2426 16.7574C11.6855 16.2002 11.0241 15.7583 10.2961 15.4567C9.56815 15.1552 8.78793 15 8 15C7.21207 15 6.43185 15.1552 5.7039 15.4567C4.97595 15.7583 4.31451 16.2002 3.75736 16.7574C3.20021 17.3145 2.75825 17.9759 2.45672 18.7039C2.15519 19.4319 2 20.2121 2 21H0ZM8 12C4.685 12 2 9.315 2 6C2 2.685 4.685 0 8 0C11.315 0 14 2.685 14 6C14 9.315 11.315 12 8 12ZM8 10C10.21 10 12 8.21 12 6C12 3.79 10.21 2 8 2C5.79 2 4 3.79 4 6C4 8.21 5.79 10 8 10Z" fill="white"/>
</svg>
