<svg width="37" height="34" viewBox="0 0 37 34" fill="none" xmlns="http://www.w3.org/2000/svg">
<path d="M30.3813 23.5669L25.9988 22.597L21.1136 18.0743L24.8773 14.5942C25.7516 14.8783 26.6603 15.017 27.5646 15.017C29.6803 15.0168 31.7703 14.257 33.3246 12.8207C35.7312 10.5968 36.3833 7.18729 34.9475 4.33672L34.2818 3.01497L30.3202 6.6741L28.4806 4.97404L32.4433 1.31397L31.0091 0.696956C27.9264 -0.629222 24.2391 -0.0265934 21.8335 2.19634C19.6151 4.24654 18.8876 7.30467 19.9125 10.0033L18.4318 11.3724L7.51944 1.27068C6.70448 0.513666 5.61915 0.0960999 4.46329 0.094873C4.4616 0.094873 4.46006 0.094873 4.45836 0.094873C3.30273 0.094873 2.21645 0.51094 1.39897 1.26693C0.580619 2.02457 0.130322 3.03147 0.130911 4.10224C0.1315 5.17219 0.582166 6.17821 1.39971 6.93461L12.3088 17.0338L10.8249 18.4059C7.90547 17.4573 4.59634 18.1291 2.37754 20.1795C-0.0289318 22.4034 -0.681186 25.8128 0.754672 28.6634L1.4204 29.9851L5.38193 26.3261L7.22155 28.0261L3.25884 31.6862L4.69308 32.3032C5.78378 32.7723 6.94987 33.0001 8.10845 33.0001C10.2243 33 12.3143 32.2402 13.8686 30.8038C16.0871 28.7536 16.8146 25.6954 15.7897 22.9968L19.5507 19.5193L24.437 24.043L25.4846 28.1002L31.1321 33.3287L36.0287 28.7954L30.3813 23.5669ZM22.2124 9.81538C21.1683 7.74194 21.6432 5.26162 23.3941 3.64357C24.7399 2.39987 26.6363 1.85239 28.4615 2.10309L25.3537 4.97364L30.3199 9.56291L33.4298 6.69039C33.702 8.3766 33.1101 10.1296 31.7642 11.3733C30.0118 12.9928 27.3255 13.4316 25.0795 12.4653L24.3797 12.1642L21.832 14.5199L19.9937 12.8182L22.5392 10.4646L22.2124 9.81538ZM2.3397 4.10115C2.3394 3.57698 2.55999 3.08395 2.96036 2.71322C3.36038 2.34336 3.89225 2.13969 4.45844 2.13969C5.02617 2.14031 5.55679 2.34432 5.95636 2.7154L20.2691 15.9649L17.2717 18.7363L2.96132 5.4884C2.5608 5.1178 2.33999 4.62512 2.3397 4.10115ZM12.3082 29.3565C10.9623 30.6002 9.06581 31.1477 7.2407 30.897L10.3485 28.0265L5.38237 23.4372L2.2724 26.3097C2.00013 24.6236 2.59216 22.8706 3.93805 21.6268C5.69042 20.0074 8.37682 19.5685 10.6227 20.5348L11.3225 20.8358L13.8707 18.4798L15.7089 20.1815L13.163 22.5355L13.4899 23.1847C14.534 25.2582 14.0591 27.7384 12.3082 29.3565ZM27.4877 27.0629L26.9308 24.9058L29.2608 25.4214L32.9052 28.7954L31.1322 30.4369L27.4877 27.0629Z" fill="#F6A700"/>
</svg>
