<svg width="20" height="19" viewBox="0 0 20 19" fill="none" xmlns="http://www.w3.org/2000/svg">
<path d="M14.5 0.399414C17.538 0.399414 20 2.89941 20 6.39941C20 13.3994 12.5 17.3994 10 18.8994C7.5 17.3994 0 13.3994 0 6.39941C0 2.89941 2.5 0.399414 5.5 0.399414C7.36 0.399414 9 1.39941 10 2.39941C11 1.39941 12.64 0.399414 14.5 0.399414ZM10.934 16.0034C11.815 15.4474 12.61 14.8944 13.354 14.3024C16.335 11.9324 18 9.34241 18 6.39941C18 4.03941 16.463 2.39941 14.5 2.39941C13.424 2.39941 12.26 2.96941 11.414 3.81341L10 5.22741L8.586 3.81341C7.74 2.96941 6.576 2.39941 5.5 2.39941C3.56 2.39941 2 4.05541 2 6.39941C2 9.34341 3.666 11.9324 6.645 14.3024C7.39 14.8944 8.185 15.4474 9.066 16.0024C9.365 16.1914 9.661 16.3724 10 16.5744C10.339 16.3724 10.635 16.1914 10.934 16.0034Z" fill="#999999"/>
</svg>
