<svg width="46" height="47" viewBox="0 0 46 47" fill="none" xmlns="http://www.w3.org/2000/svg">
<g clip-path="url(#clip0_26_1014)">
<path d="M46 23.1465C46 35.8336 35.6871 46.1465 23 46.1465C10.3129 46.1465 0 35.8336 0 23.1465C0 10.4594 10.3129 0.146484 23 0.146484C35.6871 0.146484 46 10.4594 46 23.1465Z" fill="#696969"/>
<path d="M23 0.146484C35.6871 0.146484 46 10.4594 46 23.1465C46 35.8336 35.6871 46.1465 23 46.1465" fill="black" fill-opacity="0.59"/>
<path d="M6.75162 6.8981C15.729 -2.07931 30.271 -2.07931 39.2484 6.8981C48.2258 15.8755 48.2258 30.4174 39.2484 39.3949" fill="black"/>
<path d="M19.7355 32.8658C19.5871 32.8658 19.3645 32.7916 19.2161 32.7174C18.8452 32.569 18.5484 32.1239 18.5484 31.7529V17.8787C18.5484 17.5078 18.8452 17.0626 19.2161 16.9142C19.5871 16.7658 20.0323 16.7658 20.4032 16.9884L29.8258 23.9626C30.1226 24.1852 30.271 24.4819 30.271 24.8529C30.271 25.2239 30.1226 25.5207 29.8258 25.7432L20.4032 32.7174C20.1807 32.7916 19.9581 32.8658 19.7355 32.8658Z" fill="black"/>
<path d="M19.7355 31.1594C19.5871 31.1594 19.3645 31.0852 19.2161 31.011C18.8452 30.8626 18.5484 30.4175 18.5484 30.0465V16.1723C18.5484 15.8013 18.8452 15.3562 19.2161 15.2078C19.5871 15.0594 20.0323 15.0594 20.4032 15.282L29.8258 22.2562C30.1226 22.4788 30.271 22.7755 30.271 23.1465C30.271 23.5175 30.1226 23.8142 29.8258 24.0368L20.4032 31.011C20.1807 31.0852 19.9581 31.1594 19.7355 31.1594Z" fill="white"/>
</g>
<defs>
<clipPath id="clip0_26_1014">
<rect y="0.146484" width="46" height="46" rx="10" fill="white"/>
</clipPath>
</defs>
</svg>
