<svg width="40" height="40" viewBox="0 0 40 40" fill="none" xmlns="http://www.w3.org/2000/svg">
<g clip-path="url(#clip0_44_459)">
<path d="M20 0.800049C9.39599 0.800049 0.799988 9.39605 0.799988 20.0001C0.799988 30.6041 9.39599 39.2001 20 39.2001C30.604 39.2001 39.2 30.6041 39.2 20.0001C39.2 9.39605 30.604 0.800049 20 0.800049ZM27.384 22.4621C27.384 22.4621 29.082 24.1381 29.5 24.9161C29.512 24.9321 29.518 24.9481 29.522 24.9561C29.692 25.2421 29.732 25.4641 29.648 25.6301C29.508 25.9061 29.028 26.0421 28.864 26.0541H25.864C25.656 26.0541 25.22 26.0001 24.692 25.6361C24.286 25.3521 23.886 24.8861 23.496 24.4321C22.914 23.7561 22.41 23.1721 21.902 23.1721C21.8375 23.1719 21.7733 23.1821 21.712 23.2021C21.328 23.3261 20.836 23.8741 20.836 25.3341C20.836 25.7901 20.476 26.0521 20.222 26.0521H18.848C18.38 26.0521 15.942 25.8881 13.782 23.6101C11.138 20.8201 8.75799 15.2241 8.73799 15.1721C8.58799 14.8101 8.89799 14.6161 9.23599 14.6161H12.266C12.67 14.6161 12.802 14.8621 12.894 15.0801C13.002 15.3341 13.398 16.3441 14.048 17.4801C15.102 19.3321 15.748 20.0841 16.266 20.0841C16.3631 20.0829 16.4585 20.0582 16.544 20.0121C17.22 19.6361 17.094 17.2261 17.064 16.7261C17.064 16.6321 17.062 15.6481 16.716 15.1761C16.468 14.8341 16.046 14.7041 15.79 14.6561C15.8936 14.5131 16.0301 14.3971 16.188 14.3181C16.652 14.0861 17.488 14.0521 18.318 14.0521H18.78C19.68 14.0641 19.912 14.1221 20.238 14.2041C20.898 14.3621 20.912 14.7881 20.854 16.2461C20.836 16.6601 20.818 17.1281 20.818 17.6801C20.818 17.8001 20.812 17.9281 20.812 18.0641C20.792 18.8061 20.768 19.6481 21.292 19.9941C21.3603 20.0369 21.4393 20.0598 21.52 20.0601C21.702 20.0601 22.25 20.0601 23.734 17.5141C24.1917 16.6946 24.5894 15.843 24.924 14.9661C24.954 14.9141 25.042 14.7541 25.146 14.6921C25.2227 14.6529 25.3078 14.633 25.394 14.6341H28.956C29.344 14.6341 29.61 14.6921 29.66 14.8421C29.748 15.0801 29.644 15.8061 28.018 18.0081L27.292 18.9661C25.818 20.8981 25.818 20.9961 27.384 22.4621Z" fill="#4889B8"/>
</g>
<defs>
<clipPath id="clip0_44_459">
<rect width="40" height="40" fill="white"/>
</clipPath>
</defs>
</svg>
