<svg width="40" height="40" viewBox="0 0 40 40" fill="none" xmlns="http://www.w3.org/2000/svg">
<g clip-path="url(#clip0_44_453)">
<path d="M20 0C8.95422 0 0 8.95422 0 20C0 31.0458 8.95422 40 20 40C31.0458 40 40 31.0458 40 20C40 8.95422 31.0458 0 20 0Z" fill="#D61E3B"/>
<path d="M25.88 6H21.88C17.88 6 13.81 9 13.81 15.62C13.7264 17.1544 14.0688 18.6821 14.7995 20.034C15.5301 21.3859 16.6205 22.5093 17.95 23.28L13 32.13C12.8865 32.3224 12.8267 32.5417 12.8267 32.765C12.8267 32.9883 12.8865 33.2076 13 33.4C13.1026 33.5762 13.2481 33.7235 13.4229 33.8284C13.5978 33.9333 13.7963 33.9923 14 34H16.49C16.7426 34.0123 16.993 33.947 17.2075 33.813C17.422 33.6789 17.5903 33.4825 17.69 33.25L22.28 24.25H22.62V32.87C22.6211 33.024 22.6535 33.1763 22.7151 33.3175C22.7767 33.4587 22.8663 33.5859 22.9784 33.6915C23.0906 33.7971 23.223 33.8789 23.3676 33.9319C23.5123 33.985 23.6662 34.0081 23.82 34H26C26.2938 34.0109 26.5801 33.9059 26.7971 33.7076C27.0141 33.5093 27.1444 33.2336 27.16 32.94V7.22C27.164 7.06371 27.1371 6.90817 27.081 6.76227C27.0248 6.61636 26.9405 6.48295 26.8328 6.36965C26.7251 6.25635 26.5961 6.16539 26.4532 6.10196C26.3103 6.03854 26.1563 6.00389 26 6H25.88ZM22.7 20.28H22.11C19.81 20.28 18.45 18.41 18.45 15.28C18.45 11.38 20.18 9.99 21.79 9.99H22.73L22.7 20.28Z" fill="white"/>
</g>
<defs>
<clipPath id="clip0_44_453">
<rect width="40" height="40" fill="white"/>
</clipPath>
</defs>
</svg>
