<svg width="21" height="21" viewBox="0 0 21 21" fill="none" xmlns="http://www.w3.org/2000/svg">
<path d="M13.8771 2.38093C16.7087 5.21248 17.0318 9.64729 14.7556 12.8397L20.5833 18.6672C21.1124 19.1962 21.1124 20.0541 20.5833 20.5832C20.0542 21.1123 19.1964 21.1123 18.6673 20.5832L12.8393 14.7559L12.673 14.8713C9.49439 17.0198 5.16351 16.6596 2.38094 13.8771C-0.793646 10.7025 -0.793646 5.55551 2.38094 2.38093C5.55552 -0.793644 10.7026 -0.793644 13.8771 2.38093ZM8.43496 15.5744L8.41172 15.5753C8.34506 15.5778 8.27831 15.5794 8.21161 15.5801C8.28678 15.5793 8.36089 15.5774 8.43496 15.5744ZM7.36723 15.5418L7.41098 15.5461C7.49336 15.5541 7.57582 15.5606 7.65839 15.5658C7.56115 15.5597 7.46411 15.5517 7.36723 15.5418ZM6.65483 15.4341L6.81369 15.4642C6.90399 15.4804 6.99452 15.4948 7.08525 15.5076C6.94131 15.4873 6.79774 15.4628 6.65483 15.4341ZM9.46986 15.4597L9.40726 15.4708C9.38266 15.475 9.35806 15.4792 9.33342 15.4832C9.37881 15.4758 9.42437 15.4679 9.46986 15.4597ZM5.67492 15.1667L5.8351 15.2204C6.07119 15.2965 6.31033 15.3606 6.55155 15.4126C6.25568 15.3489 5.96287 15.2669 5.67492 15.1667ZM10.1729 15.2962L9.99661 15.344C9.89934 15.3691 9.80165 15.3922 9.70363 15.4132C9.86115 15.3793 10.0176 15.3404 10.1729 15.2962ZM10.867 15.0614C10.8338 15.0745 10.8007 15.0873 10.7674 15.0999L10.7673 15.0999L10.867 15.0614ZM5.17405 14.9718L5.2694 15.0121C5.23759 14.9989 5.2058 14.9855 5.17414 14.9719L5.17405 14.9718ZM11.2374 14.9035L11.1427 14.9462C11.0911 14.969 11.0395 14.9911 10.9875 15.0127C11.0712 14.978 11.1546 14.9415 11.2374 14.9035ZM4.80218 14.799L4.89042 14.8423L4.89778 14.8458C4.86584 14.8304 4.83395 14.8148 4.80218 14.799ZM4.2689 14.5049L4.34597 14.551C4.45148 14.6132 4.55825 14.6727 4.66607 14.7293C4.53204 14.6589 4.3995 14.5841 4.2689 14.5049ZM12.4931 14.1704L12.3966 14.2391C12.3396 14.279 12.2822 14.318 12.2244 14.3561L12.2349 14.3491C12.322 14.2916 12.408 14.232 12.4931 14.1704ZM3.81797 3.81795C1.43703 6.19888 1.43703 10.0591 3.81797 12.4401C6.19891 14.821 10.0592 14.821 12.4401 12.4401C14.821 10.0591 14.821 6.19888 12.4401 3.81795C10.0592 1.43702 6.19891 1.43702 3.81797 3.81795ZM12.8972 13.8559L12.7332 13.989L12.7446 13.98L12.8972 13.8559ZM3.05116 13.5827L3.00353 13.5379C3.14628 13.6733 3.29309 13.802 3.44354 13.924C3.30972 13.8155 3.17885 13.7018 3.05116 13.5827ZM2.85998 13.3981L3.00353 13.5379L3.01089 13.5449L2.85998 13.3981Z" fill="white"/>
</svg>
