<svg width="28" height="32" viewBox="0 0 28 32" fill="none" xmlns="http://www.w3.org/2000/svg">
<path d="M14 32C14 32 27.083 26.25 27.083 18C27.083 9.75001 27.083 4 27.083 4C27.083 4 26.292 4.11298 25.055 4.11298C22.317 4.11298 17.387 3.55899 14 0C10.613 3.55899 5.68399 4.11298 2.944 4.11298C1.70697 4.11298 0.917028 4 0.917028 4C0.917028 4 0.917028 9.75001 0.917028 18C0.917028 26.25 14 32 14 32ZM2.91703 6.11298C2.92604 6.11298 2.93505 6.11298 2.94505 6.11298C5.58002 6.11298 10.2471 5.63396 14.001 2.69401C17.755 5.63402 22.421 6.11298 25.0571 6.11298C25.0661 6.11298 25.0751 6.11298 25.0851 6.11298V18C25.0851 23.263 17.71 27.971 14.0001 29.793C10.2871 27.977 2.91709 23.28 2.91709 18V6.11298H2.91703Z" fill="#F6A700"/>
<path d="M21.577 10.687L19.923 9.56299L12.913 19.886L8.579 16.81L7.421 18.44L13.421 22.698L21.577 10.687Z" fill="#F6A700"/>
</svg>
