<svg width="36" height="36" viewBox="0 0 36 36" fill="none" xmlns="http://www.w3.org/2000/svg">
<g clip-path="url(#clip0_40_112)">
<path d="M33.6787 5.57872C33.5906 5.57011 24.7931 4.6671 18.6657 0.21624C18.2688 -0.0718912 17.7314 -0.072231 17.3345 0.216127C11.2056 4.6671 2.40922 5.57011 2.32178 5.57861C1.7411 5.63467 1.29803 6.12271 1.29803 6.70599C1.29803 6.94938 1.32069 12.7424 3.29298 19.2453C4.46216 23.1006 6.07893 26.3993 8.09812 29.0496C10.6629 32.416 13.8781 34.7364 17.6546 35.9461C17.7669 35.982 17.8835 36.0001 18.0001 36.0001C18.1168 36.0001 18.2333 35.9821 18.3457 35.9461C22.1222 34.7364 25.3374 32.416 27.9021 29.0496C29.9212 26.3993 31.5379 23.1006 32.7072 19.2453C34.6794 12.7424 34.702 6.9495 34.702 6.70599C34.702 6.12316 34.2589 5.63535 33.6787 5.57872ZM30.8774 17.4059C30.865 17.4172 30.8522 17.4276 30.8402 17.4394L15.6331 32.6466C14.6261 32.1133 13.6775 31.476 12.7881 30.7353L32.0557 11.4673C31.8274 13.1871 31.4617 15.2417 30.8774 17.4059ZM6.37125 21.2316L22.6153 4.98751C23.8029 5.49378 24.9805 5.91329 26.0987 6.26088L7.85959 24.4999C7.31855 23.485 6.82236 22.3952 6.37125 21.2316ZM18 2.51416C18.7907 3.04613 19.6101 3.52556 20.4401 3.95923L5.54435 18.855C5.52192 18.7828 5.49848 18.7121 5.47639 18.6394C5.10468 17.4197 4.80567 16.2201 4.56443 15.0784L15.8236 3.81935C16.5632 3.42283 17.2932 2.98962 18 2.51416ZM10.3068 6.13256L4.07345 12.3659C3.76754 10.3468 3.64476 8.68803 3.59572 7.69961C4.95132 7.50186 7.45843 7.05166 10.3068 6.13256ZM9.05368 26.5094L28.6079 6.95527C30.2026 7.34398 31.539 7.57344 32.405 7.69973C32.4015 7.77142 32.3974 7.84776 32.3931 7.92647L11.1432 29.1765C10.3961 28.3741 9.69949 27.4846 9.05368 26.5094ZM18.0001 33.6741C17.953 33.6579 17.9069 33.6398 17.86 33.6233L29.2014 22.282C26.6871 28.1535 22.9319 31.9781 18.0001 33.6741Z" fill="#F6A700"/>
</g>
<defs>
<clipPath id="clip0_40_112">
<rect width="36" height="36" fill="white"/>
</clipPath>
</defs>
</svg>
