<svg width="22" height="23" viewBox="0 0 22 23" fill="none" xmlns="http://www.w3.org/2000/svg">
<g clip-path="url(#clip0_24_820)">
<path d="M0.936229 0.424561H4.95437C5.37544 0.424561 5.70245 0.706771 5.84131 1.07857L9.57724 12.8956H17.5642L19.804 6.31066H11.3959C10.8808 6.31066 10.4597 5.88959 10.4597 5.37444C10.4597 4.85929 10.8808 4.43822 11.3959 4.43822H21.0672C21.896 4.47853 22.1065 5.24453 21.9542 5.60738L19.1052 14.105C18.9663 14.4768 18.5901 14.7143 18.2183 14.7143H8.92323C8.50215 14.7143 8.13035 14.4813 8.03628 14.105L4.30036 2.28804H0.936229C0.421083 2.28804 7.68316e-06 1.86697 7.68316e-06 1.35182C7.68316e-06 0.836677 0.425563 0.424561 0.936229 0.424561Z" fill="#999999"/>
<path d="M17.3761 16.3986C19.0111 16.3986 20.364 17.7514 20.364 19.3864C20.364 21.0214 19.0111 22.3742 17.3761 22.3742C15.7411 22.3742 14.3883 21.0214 14.3883 19.3864C14.3883 17.7514 15.7411 16.3986 17.3761 16.3986ZM16.2562 19.4312C16.2562 20.0852 16.7714 20.6004 17.3761 20.6004C17.9853 20.6004 18.496 20.0852 18.496 19.4312C18.496 18.7772 17.9808 18.262 17.3761 18.262C16.7221 18.2665 16.207 18.7772 16.2562 19.4312Z" fill="#999999"/>
<path d="M10.0924 16.3986C11.7274 16.3986 13.0803 17.7514 13.0803 19.3864C13.0803 21.0214 11.7274 22.3742 10.0924 22.3742C8.41259 22.3742 7.10457 21.0214 7.10457 19.3864C7.10009 17.7514 8.45739 16.3986 10.0924 16.3986ZM8.96805 19.4312C8.96805 20.0852 9.4832 20.6004 10.0879 20.6004C10.6927 20.6004 11.2078 20.0852 11.2078 19.4312C11.2078 18.7772 10.6927 18.262 10.0879 18.262C9.4384 18.2665 8.92326 18.7772 8.96805 19.4312Z" fill="#999999"/>
</g>
<defs>
<clipPath id="clip0_24_820">
<rect width="22" height="22" fill="white" transform="matrix(-1 0 0 1 22 0.399414)"/>
</clipPath>
</defs>
</svg>
