<svg width="24" height="24" viewBox="0 0 24 24" fill="none" xmlns="http://www.w3.org/2000/svg">
<path d="M12 22C6.477 22 2 17.523 2 12C2 6.477 6.477 2 12 2C17.523 2 22 6.477 22 12C22 17.523 17.523 22 12 22ZM12 20C14.1217 20 16.1566 19.1571 17.6569 17.6569C19.1571 16.1566 20 14.1217 20 12C20 9.87827 19.1571 7.84344 17.6569 6.34315C16.1566 4.84285 14.1217 4 12 4C9.87827 4 7.84344 4.84285 6.34315 6.34315C4.84285 7.84344 4 9.87827 4 12C4 14.1217 4.84285 16.1566 6.34315 17.6569C7.84344 19.1571 9.87827 20 12 20Z" fill="#F6A700"/>
<path d="M16.9994 14.4556V16.42C16.9995 16.5607 16.9462 16.6961 16.8503 16.799C16.7545 16.9019 16.6231 16.9646 16.4828 16.9744C16.24 16.9911 16.0417 17 15.8884 17C10.9792 17 7 13.0206 7 8.11111C7 7.95778 7.00833 7.75944 7.02555 7.51667C7.0354 7.37636 7.0981 7.24501 7.20099 7.14912C7.30389 7.05323 7.43932 6.99994 7.57997 7H9.5443C9.61321 6.99993 9.67968 7.02548 9.73081 7.07168C9.78193 7.11788 9.81406 7.18143 9.82095 7.25C9.83373 7.37778 9.8454 7.47944 9.85651 7.55667C9.96691 8.32718 10.1932 9.07657 10.5276 9.77944C10.5804 9.89056 10.5459 10.0233 10.4459 10.0944L9.2471 10.9511C9.98009 12.6591 11.3412 14.0203 13.0491 14.7533L13.9046 13.5567C13.9396 13.5078 13.9906 13.4727 14.0488 13.4576C14.1069 13.4425 14.1686 13.4482 14.2229 13.4739C14.9257 13.8077 15.6748 14.0334 16.445 14.1433C16.5222 14.1544 16.6239 14.1667 16.7506 14.1789C16.819 14.1859 16.8824 14.2181 16.9285 14.2692C16.9746 14.3203 17.0001 14.3867 17 14.4556H16.9994Z" fill="#F6A700"/>
</svg>
