<svg width="42" height="43" viewBox="0 0 42 43" fill="none" xmlns="http://www.w3.org/2000/svg">
<g clip-path="url(#clip0_24_757)">
<path d="M21 0.962646C9.40193 0.962646 0 10.3646 0 21.9626C0 33.5607 9.40193 42.9626 21 42.9626C32.5981 42.9626 42 33.5607 42 21.9626C42 10.3646 32.5981 0.962646 21 0.962646Z" fill="#40B3E0"/>
<path d="M31.2182 13.0427L27.4675 31.9536C27.4675 31.9536 26.9429 33.2652 25.5003 32.6356L16.8447 25.9996L13.6974 24.4785L8.39913 22.6948C8.39913 22.6948 7.58603 22.4064 7.50728 21.7768C7.4287 21.1473 8.42538 20.8064 8.42538 20.8064L29.4871 12.5442C29.4871 12.5442 31.2182 11.7836 31.2182 13.0427Z" fill="white"/>
<path d="M16.1795 31.7413C16.1795 31.7413 15.9268 31.7177 15.612 30.7208C15.2973 29.7241 13.6974 24.4784 13.6974 24.4784L26.4183 16.4C26.4183 16.4 27.1528 15.954 27.1266 16.4C27.1266 16.4 27.2576 16.4786 26.8642 16.8457C26.4708 17.2131 16.871 25.8423 16.871 25.8423" fill="#D2E5F1"/>
<path d="M20.1635 28.5441L16.7399 31.6656C16.7399 31.6656 16.4723 31.8687 16.1794 31.7414L16.835 25.9432" fill="#B5CFE4"/>
</g>
<defs>
<clipPath id="clip0_24_757">
<rect width="42" height="42" fill="white" transform="translate(0 0.962646)"/>
</clipPath>
</defs>
</svg>
