<svg width="36" height="36" viewBox="0 0 36 36" fill="none" xmlns="http://www.w3.org/2000/svg">
<path d="M16.9045 2.97409L7.82613 9.78288H1.17394C0.525586 9.78281 0 10.3084 0 10.9567V25.0439C0 25.6922 0.525586 26.2178 1.17394 26.2178H7.82613L16.9045 33.0266C17.6723 33.6024 18.7827 33.0596 18.7827 32.0874V3.91319C18.7828 2.94808 17.6776 2.39423 16.9045 2.97409ZM7.04355 23.8699H2.34787V12.1307H7.04355V23.8699ZM16.4349 29.7395L9.39136 24.4569V11.5437L16.4349 6.26106V29.7395Z" fill="#F6A700"/>
<path d="M30.8504 5.54891C30.392 5.09047 29.6487 5.09047 29.1903 5.54891C28.7318 6.00734 28.7318 6.75062 29.1903 7.20906C32.0674 10.0862 33.6521 13.9185 33.6521 17.9999C33.6522 22.0814 32.0677 25.9139 29.1903 28.7913C28.7318 29.2498 28.7318 29.9931 29.1903 30.4515C29.4195 30.6807 29.7199 30.7954 30.0204 30.7954C30.3208 30.7954 30.6213 30.6808 30.8504 30.4515C34.1713 27.1306 36.0001 22.7085 36 17.9998C35.9999 13.2914 34.1711 8.86949 30.8504 5.54891Z" fill="#F6A700"/>
<path d="M27.5305 8.86799C27.0721 8.40934 26.3287 8.40927 25.8703 8.86757C25.4118 9.32587 25.4116 10.0692 25.8699 10.5277C29.9881 14.648 29.9881 21.3523 25.8699 25.4726C25.4116 25.9311 25.4117 26.6744 25.8703 27.1327C26.0996 27.3619 26.3999 27.4763 26.7002 27.4763C27.0008 27.4763 27.3013 27.3616 27.5305 27.1323C32.5635 22.0969 32.5635 13.9035 27.5305 8.86799Z" fill="#F6A700"/>
<path d="M24.2115 12.1904C23.7532 11.7318 23.0099 11.7318 22.5513 12.1901C22.0928 12.6485 22.0926 13.3918 22.5511 13.8503C24.8385 16.1387 24.8374 19.8631 22.5488 22.1527C22.0905 22.6114 22.0907 23.3546 22.5492 23.8129C22.7785 24.0421 23.0788 24.1565 23.3791 24.1565C23.6797 24.1565 23.9802 24.0419 24.2093 23.8125C27.4128 20.6077 27.4138 15.3941 24.2115 12.1904Z" fill="#F6A700"/>
</svg>
