<svg width="42" height="43" viewBox="0 0 42 43" fill="none" xmlns="http://www.w3.org/2000/svg">
<g clip-path="url(#clip0_24_752)">
<path d="M35.814 7.06611C31.8831 3.13253 26.6562 0.965046 21.0873 0.962646C9.61178 0.962646 0.272978 10.2985 0.268384 21.7735C0.267047 25.4415 1.22546 29.0221 3.04714 32.1782L0.0935974 42.9626L11.13 40.0688C14.1707 41.7271 17.5944 42.6009 21.0784 42.6023H21.0872H21.0873C32.5611 42.6023 41.9013 33.2649 41.9061 21.7904C41.908 16.229 39.7444 11 35.814 7.06611ZM21.0873 39.0873H21.0806C17.9751 39.0856 14.9297 38.2519 12.2734 36.6757L11.6413 36.3009L5.09208 38.0181L6.84064 31.635L6.42877 30.9806C4.6965 28.2262 3.78201 25.0432 3.78331 21.7748C3.78712 12.2372 11.5492 4.47781 21.0939 4.47781C25.716 4.47973 30.0601 6.28135 33.3274 9.55083C36.5944 12.8203 38.3923 17.1665 38.3909 21.7889C38.3868 31.3269 30.6245 39.0873 21.0873 39.0873Z" fill="#E0E0E0"/>
<path d="M1.04929 41.7659L3.86791 31.4742C2.129 28.4622 1.21454 25.0449 1.21564 21.5451C1.2202 10.5945 10.1325 1.68542 21.0829 1.68542C26.3977 1.68782 31.3859 3.75618 35.1364 7.51018C38.8877 11.2641 40.9523 16.254 40.9501 21.5607C40.9456 32.5116 32.0327 41.4215 21.0837 41.4215C21.0829 41.4215 21.0842 41.4215 21.0837 41.4215H21.0748C17.75 41.4204 14.4829 40.5858 11.5813 39.0043L1.04929 41.7659Z" fill="url(#paint0_linear_24_752)"/>
<path fill-rule="evenodd" clip-rule="evenodd" d="M15.9427 12.9383C15.5576 12.0819 15.152 12.0648 14.7856 12.0498C14.4859 12.0369 14.1427 12.0377 13.8002 12.0377C13.4573 12.0377 12.9002 12.1666 12.429 12.6811C11.9576 13.1957 10.629 14.4396 10.629 16.9694C10.629 19.4996 12.4719 21.9443 12.7287 22.2877C12.9859 22.6305 16.2861 27.9881 21.5128 30.0492C25.8566 31.7622 26.7405 31.4214 27.6834 31.3357C28.6262 31.25 30.7256 30.0921 31.1542 28.8913C31.5828 27.6908 31.5828 26.6617 31.4542 26.4466C31.3256 26.2323 30.9828 26.1037 30.4685 25.8466C29.9542 25.5895 27.4262 24.3453 26.9548 24.1739C26.4834 24.0024 26.1405 23.9167 25.7977 24.4315C25.4548 24.9458 24.4699 26.1037 24.1699 26.4466C23.8699 26.7902 23.5699 26.8331 23.0556 26.5759C22.5413 26.318 20.8852 25.7756 18.9205 24.0238C17.3918 22.661 16.3598 20.9778 16.0598 20.463C15.7598 19.9487 16.0276 19.6702 16.2856 19.4138C16.5165 19.1834 16.7999 18.8135 17.057 18.5133C17.3136 18.213 17.3993 17.9987 17.5707 17.6559C17.7422 17.3125 17.6564 17.0122 17.5279 16.7551C17.3993 16.498 16.4 13.955 15.9427 12.9383Z" fill="white"/>
<path d="M35.6439 6.99997C31.7582 3.11154 26.5913 0.968987 21.0864 0.966553C9.7425 0.966553 0.510911 10.1952 0.506351 21.5385C0.505014 25.1645 1.45242 28.7039 3.25319 31.8238L0.333588 42.4844L11.2433 39.6237C14.2491 41.2629 17.6335 42.1268 21.0775 42.1281H21.0863H21.0864C32.4284 42.1281 41.6613 32.8979 41.6661 21.5551C41.668 16.0577 39.5292 10.8887 35.6439 6.99997ZM21.0864 38.6536H21.0797C18.0098 38.6519 14.9994 37.8278 12.3736 36.2697L11.7487 35.8992L5.27468 37.5966L7.00314 31.2868L6.596 30.6399C4.88362 27.9172 3.97962 24.7707 3.98096 21.5399C3.9847 12.1117 11.6576 4.44143 21.0928 4.44143C25.6619 4.44332 29.9561 6.22426 33.1859 9.4562C36.4154 12.6881 38.1926 16.9845 38.1913 21.5538C38.1872 30.9822 30.514 38.6536 21.0864 38.6536Z" fill="white"/>
</g>
<defs>
<linearGradient id="paint0_linear_24_752" x1="20.9997" y1="41.7659" x2="20.9997" y2="1.68549" gradientUnits="userSpaceOnUse">
<stop stop-color="#20B038"/>
<stop offset="1" stop-color="#60D66A"/>
</linearGradient>
<clipPath id="clip0_24_752">
<rect width="42" height="42" fill="white" transform="translate(0 0.962646)"/>
</clipPath>
</defs>
</svg>
