<svg width="24" height="24" viewBox="0 0 24 24" fill="none" xmlns="http://www.w3.org/2000/svg">
<path d="M12.0117 2C6.50391 2 2.02344 6.47656 2.02344 11.9844C2.01953 13.7461 2.48047 15.4609 3.35547 16.9766L2 22L7.23438 20.7656C8.69141 21.5586 10.332 21.9766 12.0039 21.9805H12.0117C17.5156 21.9805 21.9961 17.5 22 11.9961C22 9.32422 20.9609 6.81641 19.0781 4.92969C17.1914 3.03906 14.6836 2 12.0117 2ZM12.0117 4C14.1445 4 16.1523 4.83203 17.6602 6.34375C19.1719 7.85156 20 9.85938 20 11.9922C19.9961 16.3945 16.4141 19.9805 12.0078 19.9805C10.6758 19.9766 9.35547 19.6445 8.19141 19.0078L7.51953 18.6406L6.77344 18.8164L4.80469 19.2812L5.28516 17.4961L5.50391 16.6953L5.08984 15.9766C4.39063 14.7695 4.01953 13.3867 4.02344 11.9844C4.02344 7.58203 7.60547 4 12.0117 4ZM8.47656 7.375C8.30859 7.375 8.03906 7.4375 7.8125 7.6875C7.58203 7.9375 6.9375 8.53906 6.9375 9.76953C6.9375 10.9961 7.83203 12.1836 7.95703 12.3477C8.07812 12.5156 9.68359 15.1133 12.2188 16.1133C14.3281 16.9453 14.7539 16.7812 15.2148 16.7422C15.6719 16.6992 16.6914 16.1367 16.8984 15.5547C17.1055 14.9727 17.1055 14.4688 17.0469 14.3672C16.9844 14.2617 16.8164 14.2031 16.5664 14.0781C16.3164 13.9531 15.0898 13.3477 14.8633 13.2656C14.6328 13.1836 14.4648 13.1406 14.3008 13.3906C14.1328 13.6406 13.6562 14.2031 13.5117 14.3672C13.3633 14.5352 13.2188 14.5586 12.9688 14.4336C12.7188 14.3047 11.9141 14.043 10.9609 13.1914C10.2188 12.5313 9.71875 11.7148 9.57422 11.4648C9.42578 11.2148 9.55859 11.0781 9.68359 10.957C9.79687 10.8438 9.93359 10.6641 10.0586 10.5195C10.1797 10.3711 10.2227 10.2656 10.3086 10.1016C10.3906 9.9375 10.3477 9.78906 10.2852 9.66406C10.2227 9.53906 9.73828 8.30469 9.51562 7.8125C9.32812 7.39844 9.13281 7.38672 8.95312 7.38281C8.80859 7.375 8.64062 7.375 8.47656 7.375Z" fill="#2ECC71"/>
</svg>
