<svg width="98" height="83" viewBox="0 0 98 83" fill="none" xmlns="http://www.w3.org/2000/svg">
<rect x="0.5" y="0.5" width="96.3604" height="82" rx="9.5" stroke="#DEDEDE"/>
<path d="M19.118 59.2H24.578V60.124H20.098V69H19.118V59.2ZM30.4668 63.372V62H31.3908V69H30.4668V67.628C29.8228 68.6547 28.8801 69.168 27.6388 69.168C26.6401 69.168 25.7861 68.8133 25.0768 68.104C24.3768 67.3947 24.0268 66.5267 24.0268 65.5C24.0268 64.4733 24.3768 63.6053 25.0768 62.896C25.7861 62.1867 26.6401 61.832 27.6388 61.832C28.8801 61.832 29.8228 62.3453 30.4668 63.372ZM25.7488 67.474C26.2808 68.006 26.9341 68.272 27.7088 68.272C28.4835 68.272 29.1368 68.006 29.6688 67.474C30.2008 66.9233 30.4668 66.2653 30.4668 65.5C30.4668 64.7253 30.2008 64.072 29.6688 63.54C29.1368 62.9987 28.4835 62.728 27.7088 62.728C26.9341 62.728 26.2808 62.9987 25.7488 63.54C25.2168 64.072 24.9508 64.7253 24.9508 65.5C24.9508 66.2653 25.2168 66.9233 25.7488 67.474ZM37.0992 61.832C38.0979 61.832 38.9472 62.1867 39.6472 62.896C40.3565 63.6053 40.7112 64.4733 40.7112 65.5C40.7112 66.5267 40.3565 67.3947 39.6472 68.104C38.9472 68.8133 38.0979 69.168 37.0992 69.168C35.8579 69.168 34.9152 68.6547 34.2712 67.628V71.8H33.3472V62H34.2712V63.372C34.9152 62.3453 35.8579 61.832 37.0992 61.832ZM35.0692 67.474C35.6012 68.006 36.2545 68.272 37.0292 68.272C37.8039 68.272 38.4572 68.006 38.9892 67.474C39.5212 66.9233 39.7872 66.2653 39.7872 65.5C39.7872 64.7253 39.5212 64.072 38.9892 63.54C38.4572 62.9987 37.8039 62.728 37.0292 62.728C36.2545 62.728 35.6012 62.9987 35.0692 63.54C34.5372 64.072 34.2712 64.7253 34.2712 65.5C34.2712 66.2653 34.5372 66.9233 35.0692 67.474ZM48.2676 63.372V62H49.1916V69H48.2676V67.628C47.6236 68.6547 46.6809 69.168 45.4396 69.168C44.4409 69.168 43.5869 68.8133 42.8776 68.104C42.1776 67.3947 41.8276 66.5267 41.8276 65.5C41.8276 64.4733 42.1776 63.6053 42.8776 62.896C43.5869 62.1867 44.4409 61.832 45.4396 61.832C46.6809 61.832 47.6236 62.3453 48.2676 63.372ZM43.5496 67.474C44.0816 68.006 44.7349 68.272 45.5096 68.272C46.2842 68.272 46.9376 68.006 47.4696 67.474C48.0016 66.9233 48.2676 66.2653 48.2676 65.5C48.2676 64.7253 48.0016 64.072 47.4696 63.54C46.9376 62.9987 46.2842 62.728 45.5096 62.728C44.7349 62.728 44.0816 62.9987 43.5496 63.54C43.0176 64.072 42.7516 64.7253 42.7516 65.5C42.7516 66.2653 43.0176 66.9233 43.5496 67.474ZM56.104 65.052V62H57.028V69H56.104V65.948H52.072V69H51.148V62H52.072V65.052H56.104ZM58.142 62H64.022V62.896H61.544V69H60.62V62.896H58.142V62ZM66.072 67.39L70.244 62H71.028V69H70.104V63.61L65.932 69H65.148V62H66.072V67.39ZM75.18 62H78.022V69H77.098V66.312H75.894L73.738 69H72.562L74.774 66.284C74.2046 66.2 73.738 65.9667 73.374 65.584C73.0193 65.192 72.842 64.7207 72.842 64.17C72.842 63.5447 73.066 63.0267 73.514 62.616C73.9806 62.2053 74.536 62 75.18 62ZM75.18 65.444H77.098V62.896H75.18C74.7786 62.896 74.4426 63.0173 74.172 63.26C73.9013 63.4933 73.766 63.7967 73.766 64.17C73.766 64.5433 73.9013 64.8513 74.172 65.094C74.4426 65.3273 74.7786 65.444 75.18 65.444Z" fill="black"/>
</svg>
