<svg width="98" height="83" viewBox="0 0 98 83" fill="none" xmlns="http://www.w3.org/2000/svg">
<rect x="1.13965" y="0.5" width="96.3604" height="82" rx="9.5" stroke="#DEDEDE"/>
<path d="M19.8429 65.22L22.4189 59.2H23.4269L20.1649 66.858C19.8382 67.642 19.4229 68.2067 18.9189 68.552C18.4149 68.8973 17.7896 69.0467 17.0429 69V68.104C17.5656 68.16 17.9949 68.0853 18.3309 67.88C18.6762 67.6653 18.9609 67.2967 19.1849 66.774L19.3809 66.312L16.0069 59.2H17.0149L19.8429 65.22ZM26.8289 69.168C25.7742 69.168 24.8969 68.818 24.1969 68.118C23.4969 67.3993 23.1469 66.5267 23.1469 65.5C23.1469 64.464 23.4969 63.596 24.1969 62.896C24.8969 62.1867 25.7742 61.832 26.8289 61.832C27.5196 61.832 28.1402 62 28.6909 62.336C29.2416 62.6627 29.6429 63.106 29.8949 63.666L29.1389 64.1C28.9522 63.68 28.6489 63.3487 28.2289 63.106C27.8182 62.854 27.3516 62.728 26.8289 62.728C26.0542 62.728 25.4009 62.9987 24.8689 63.54C24.3369 64.072 24.0709 64.7253 24.0709 65.5C24.0709 66.2653 24.3369 66.9233 24.8689 67.474C25.4009 68.006 26.0542 68.272 26.8289 68.272C27.3422 68.272 27.8042 68.1507 28.2149 67.908C28.6349 67.6653 28.9616 67.3293 29.1949 66.9L29.9649 67.348C29.6756 67.908 29.2509 68.3513 28.6909 68.678C28.1309 69.0047 27.5102 69.168 26.8289 69.168ZM30.3148 62H36.1948V62.896H33.7168V69H32.7928V62.896H30.3148V62ZM43.0674 63.372V62H43.9914V69H43.0674V67.628C42.4234 68.6547 41.4807 69.168 40.2394 69.168C39.2407 69.168 38.3867 68.8133 37.6774 68.104C36.9774 67.3947 36.6274 66.5267 36.6274 65.5C36.6274 64.4733 36.9774 63.6053 37.6774 62.896C38.3867 62.1867 39.2407 61.832 40.2394 61.832C41.4807 61.832 42.4234 62.3453 43.0674 63.372ZM38.3494 67.474C38.8814 68.006 39.5347 68.272 40.3094 68.272C41.084 68.272 41.7374 68.006 42.2694 67.474C42.8014 66.9233 43.0674 66.2653 43.0674 65.5C43.0674 64.7253 42.8014 64.072 42.2694 63.54C41.7374 62.9987 41.084 62.728 40.3094 62.728C39.5347 62.728 38.8814 62.9987 38.3494 63.54C37.8174 64.072 37.5514 64.7253 37.5514 65.5C37.5514 66.2653 37.8174 66.9233 38.3494 67.474ZM50.9038 65.052V62H51.8278V69H50.9038V65.948H46.8718V69H45.9478V62H46.8718V65.052H50.9038ZM59.6478 68.118C58.9291 68.818 58.0611 69.168 57.0438 69.168C56.0078 69.168 55.1351 68.818 54.4258 68.118C53.7164 67.4087 53.3618 66.536 53.3618 65.5C53.3618 64.464 53.7164 63.596 54.4258 62.896C55.1351 62.1867 56.0078 61.832 57.0438 61.832C58.0704 61.832 58.9384 62.1867 59.6478 62.896C60.3664 63.596 60.7258 64.464 60.7258 65.5C60.7258 66.5267 60.3664 67.3993 59.6478 68.118ZM55.0838 67.474C55.6158 68.006 56.2691 68.272 57.0438 68.272C57.8184 68.272 58.4718 68.006 59.0038 67.474C59.5358 66.9233 59.8018 66.2653 59.8018 65.5C59.8018 64.7253 59.5358 64.072 59.0038 63.54C58.4718 62.9987 57.8184 62.728 57.0438 62.728C56.2691 62.728 55.6158 62.9987 55.0838 63.54C54.5518 64.072 54.2858 64.7253 54.2858 65.5C54.2858 66.2653 54.5518 66.9233 55.0838 67.474ZM66.724 65.402C67.4893 65.682 67.872 66.228 67.872 67.04C67.872 67.6187 67.676 68.09 67.284 68.454C66.9013 68.818 66.3647 69 65.674 69H62.272V62H65.394C66.066 62 66.5887 62.1727 66.962 62.518C67.3447 62.8633 67.536 63.316 67.536 63.876C67.536 64.576 67.2653 65.0847 66.724 65.402ZM65.394 62.896H63.196V65.024H65.394C66.206 65.024 66.612 64.66 66.612 63.932C66.612 63.6053 66.5047 63.3533 66.29 63.176C66.0847 62.9893 65.786 62.896 65.394 62.896ZM63.196 68.104H65.674C66.0847 68.104 66.3973 68.006 66.612 67.81C66.836 67.614 66.948 67.3387 66.948 66.984C66.948 66.648 66.836 66.3867 66.612 66.2C66.3973 66.0133 66.0847 65.92 65.674 65.92H63.196V68.104ZM71.176 65.36L74.928 69H73.696L70.196 65.626V69H69.272V62H70.196V65.094L73.528 62H74.788L71.176 65.36ZM81.5127 63.372V62H82.4367V69H81.5127V67.628C80.8687 68.6547 79.926 69.168 78.6847 69.168C77.686 69.168 76.832 68.8133 76.1227 68.104C75.4227 67.3947 75.0727 66.5267 75.0727 65.5C75.0727 64.4733 75.4227 63.6053 76.1227 62.896C76.832 62.1867 77.686 61.832 78.6847 61.832C79.926 61.832 80.8687 62.3453 81.5127 63.372ZM76.7947 67.474C77.3267 68.006 77.98 68.272 78.7547 68.272C79.5294 68.272 80.1827 68.006 80.7147 67.474C81.2467 66.9233 81.5127 66.2653 81.5127 65.5C81.5127 64.7253 81.2467 64.072 80.7147 63.54C80.1827 62.9987 79.5294 62.728 78.7547 62.728C77.98 62.728 77.3267 62.9987 76.7947 63.54C76.2627 64.072 75.9967 64.7253 75.9967 65.5C75.9967 66.2653 76.2627 66.9233 76.7947 67.474Z" fill="black"/>
</svg>
